<?xml version="1.0" encoding="UTF-8"?>
<svg xmlns="http://www.w3.org/2000/svg" xmlns:xlink="http://www.w3.org/1999/xlink" width="160px" height="160px" viewBox="0 0 160 160" version="1.1">
<g id="surface1">
<path style=" stroke:none;fill-rule:nonzero;fill:rgb(19.215686%,20%,20.784314%);fill-opacity:1;" d="M 84.425781 98.40625 L 48.011719 98.40625 C 46.625 98.40625 45.5 97.28125 45.5 95.894531 L 45.5 25.070312 C 45.5 23.816406 46.511719 22.804688 47.761719 22.804688 L 84.617188 22.804688 C 87.21875 39.335938 86.53125 77.527344 84.425781 98.40625 "/>
<path style=" stroke:none;fill-rule:nonzero;fill:rgb(17.254902%,26.27451%,47.843137%);fill-opacity:1;" d="M 108.847656 22.804688 L 89.636719 22.804688 C 93.144531 28.585938 92.066406 86.460938 90.128906 98.40625 L 108.351562 98.40625 C 106.414062 86.460938 105.335938 28.585938 108.847656 22.804688 "/>
<path style=" stroke:none;fill-rule:nonzero;fill:rgb(19.215686%,20%,20.784314%);fill-opacity:1;" d="M 113.757812 22.804688 L 120.113281 22.804688 C 120.9375 22.804688 121.601562 23.472656 121.601562 24.292969 L 121.601562 96.390625 C 121.601562 97.503906 120.699219 98.40625 119.589844 98.40625 L 114.007812 98.40625 C 111.964844 77.199219 111.304688 40.007812 113.757812 22.804688 "/>
<path style=" stroke:none;fill-rule:nonzero;fill:rgb(19.215686%,20%,20.784314%);fill-opacity:1;" d="M 56.5 121.542969 C 56.5 120.804688 56.238281 120.242188 55.714844 119.847656 C 55.191406 119.457031 54.242188 119.039062 52.871094 118.59375 C 50.089844 117.761719 48.027344 116.875 46.679688 115.933594 C 45.328125 114.992188 44.65625 113.636719 44.65625 111.867188 C 44.65625 110.136719 45.441406 108.738281 47.007812 107.671875 C 48.578125 106.601562 50.570312 106.066406 52.992188 106.066406 C 55.546875 106.066406 57.601562 106.617188 59.160156 107.71875 C 60.71875 108.820312 61.472656 110.375 61.421875 112.378906 L 61.390625 112.464844 L 56.34375 112.464844 C 56.34375 111.492188 56.058594 110.785156 55.484375 110.34375 C 54.910156 109.902344 54.042969 109.683594 52.882812 109.683594 C 51.941406 109.683594 51.199219 109.898438 50.652344 110.324219 C 50.109375 110.75 49.839844 111.273438 49.839844 111.898438 C 49.839844 112.503906 50.117188 112.988281 50.675781 113.351562 C 51.234375 113.714844 52.28125 114.171875 53.808594 114.71875 C 56.402344 115.429688 58.367188 116.292969 59.699219 117.316406 C 61.03125 118.335938 61.699219 119.738281 61.699219 121.515625 C 61.699219 123.332031 60.929688 124.75 59.390625 125.777344 C 57.851562 126.804688 55.8125 127.316406 53.269531 127.316406 C 50.734375 127.316406 48.589844 126.765625 46.832031 125.664062 C 45.074219 124.5625 44.21875 122.828125 44.269531 120.464844 L 44.300781 120.378906 L 49.363281 120.378906 C 49.363281 121.582031 49.683594 122.433594 50.324219 122.941406 C 50.964844 123.445312 51.945312 123.699219 53.269531 123.699219 C 54.355469 123.699219 55.167969 123.5 55.699219 123.105469 C 56.234375 122.707031 56.5 122.1875 56.5 121.542969 "/>
<path style=" stroke:none;fill-rule:nonzero;fill:rgb(19.215686%,20%,20.784314%);fill-opacity:1;" d="M 77.957031 114.804688 C 77.957031 113.328125 77.582031 112.121094 76.828125 111.175781 C 76.074219 110.226562 75.007812 109.753906 73.636719 109.753906 C 72.230469 109.753906 71.15625 110.226562 70.414062 111.167969 C 69.667969 112.109375 69.296875 113.320312 69.296875 114.804688 L 69.296875 118.550781 C 69.296875 120.042969 69.675781 121.265625 70.425781 122.210938 C 71.179688 123.15625 72.261719 123.628906 73.664062 123.628906 C 75.027344 123.628906 76.085938 123.15625 76.835938 122.210938 C 77.582031 121.265625 77.957031 120.042969 77.957031 118.550781 Z M 83.140625 118.550781 C 83.140625 121.09375 82.265625 123.191406 80.519531 124.839844 C 78.769531 126.492188 76.484375 127.316406 73.664062 127.316406 C 70.824219 127.316406 68.523438 126.492188 66.757812 124.839844 C 64.996094 123.191406 64.113281 121.09375 64.113281 118.550781 L 64.113281 114.832031 C 64.113281 112.300781 64.992188 110.203125 66.75 108.550781 C 68.511719 106.894531 70.804688 106.066406 73.636719 106.066406 C 76.445312 106.066406 78.730469 106.894531 80.496094 108.550781 C 82.257812 110.203125 83.140625 112.300781 83.140625 114.832031 Z M 83.140625 118.550781 "/>
<path style=" stroke:none;fill-rule:nonzero;fill:rgb(19.215686%,20%,20.784314%);fill-opacity:1;" d="M 97.859375 121.542969 C 97.859375 120.804688 97.601562 120.242188 97.078125 119.847656 C 96.554688 119.457031 95.605469 119.039062 94.230469 118.59375 C 91.453125 117.761719 89.386719 116.875 88.039062 115.933594 C 86.691406 114.992188 86.015625 113.636719 86.015625 111.867188 C 86.015625 110.136719 86.800781 108.738281 88.371094 107.671875 C 89.941406 106.601562 91.933594 106.066406 94.355469 106.066406 C 96.90625 106.066406 98.964844 106.617188 100.523438 107.71875 C 102.082031 108.820312 102.835938 110.375 102.785156 112.378906 L 102.753906 112.464844 L 97.707031 112.464844 C 97.707031 111.492188 97.421875 110.785156 96.847656 110.34375 C 96.269531 109.902344 95.40625 109.683594 94.246094 109.683594 C 93.300781 109.683594 92.558594 109.898438 92.015625 110.324219 C 91.472656 110.75 91.199219 111.273438 91.199219 111.898438 C 91.199219 112.503906 91.480469 112.988281 92.039062 113.351562 C 92.597656 113.714844 93.640625 114.171875 95.167969 114.71875 C 97.761719 115.429688 99.726562 116.292969 101.058594 117.316406 C 102.394531 118.335938 103.058594 119.738281 103.058594 121.515625 C 103.058594 123.332031 102.292969 124.75 100.753906 125.777344 C 99.214844 126.804688 97.175781 127.316406 94.632812 127.316406 C 92.097656 127.316406 89.953125 126.765625 88.195312 125.664062 C 86.433594 124.5625 85.582031 122.828125 85.632812 120.464844 L 85.664062 120.378906 L 90.722656 120.378906 C 90.722656 121.582031 91.042969 122.433594 91.683594 122.941406 C 92.324219 123.445312 93.308594 123.699219 94.632812 123.699219 C 95.71875 123.699219 96.527344 123.5 97.0625 123.105469 C 97.59375 122.707031 97.859375 122.1875 97.859375 121.542969 "/>
<path style=" stroke:none;fill-rule:nonzero;fill:rgb(19.215686%,20%,20.784314%);fill-opacity:1;" d="M 112.152344 119.316406 L 116.410156 119.316406 L 114.320312 112.90625 L 114.226562 112.90625 Z M 117.609375 123.003906 L 110.949219 123.003906 L 109.660156 127.019531 L 104.183594 127.019531 L 111.488281 106.363281 L 114.273438 106.363281 L 114.273438 106.378906 L 114.289062 106.363281 L 117.074219 106.363281 L 124.394531 127.019531 L 118.917969 127.019531 Z M 117.609375 123.003906 "/>
<path style=" stroke:none;fill-rule:nonzero;fill:rgb(19.215686%,20%,20.784314%);fill-opacity:1;" d="M 50.652344 134.695312 L 50.664062 134.726562 C 50.675781 135.492188 50.441406 136.089844 49.960938 136.523438 C 49.480469 136.957031 48.820312 137.175781 47.976562 137.175781 C 47.113281 137.175781 46.417969 136.898438 45.890625 136.34375 C 45.359375 135.792969 45.097656 135.074219 45.097656 134.199219 L 45.097656 132.773438 C 45.097656 131.898438 45.355469 131.183594 45.871094 130.625 C 46.386719 130.070312 47.0625 129.789062 47.902344 129.789062 C 48.777344 129.789062 49.460938 130.003906 49.953125 130.433594 C 50.445312 130.859375 50.683594 131.460938 50.671875 132.234375 L 50.664062 132.265625 L 49.261719 132.265625 C 49.261719 131.804688 49.152344 131.464844 48.929688 131.238281 C 48.707031 131.011719 48.363281 130.898438 47.902344 130.898438 C 47.472656 130.898438 47.136719 131.074219 46.894531 131.421875 C 46.652344 131.765625 46.53125 132.214844 46.53125 132.761719 L 46.53125 134.199219 C 46.53125 134.75 46.660156 135.199219 46.914062 135.546875 C 47.167969 135.898438 47.523438 136.070312 47.976562 136.070312 C 48.40625 136.070312 48.726562 135.957031 48.9375 135.734375 C 49.152344 135.507812 49.257812 135.164062 49.257812 134.695312 Z M 50.652344 134.695312 "/>
<path style=" stroke:none;fill-rule:nonzero;fill:rgb(19.215686%,20%,20.784314%);fill-opacity:1;" d="M 56.492188 134.394531 L 58.113281 134.394531 L 57.320312 131.867188 L 57.289062 131.867188 Z M 58.464844 135.523438 L 56.136719 135.523438 L 55.652344 137.070312 L 54.148438 137.070312 L 56.570312 129.894531 L 58.042969 129.894531 L 60.453125 137.070312 L 58.953125 137.070312 Z M 58.464844 135.523438 "/>
<path style=" stroke:none;fill-rule:nonzero;fill:rgb(19.215686%,20%,20.784314%);fill-opacity:1;" d="M 65.613281 133.09375 L 66.632812 133.09375 C 67.039062 133.09375 67.339844 133.007812 67.535156 132.835938 C 67.734375 132.667969 67.832031 132.414062 67.832031 132.078125 C 67.832031 131.75 67.730469 131.488281 67.535156 131.292969 C 67.335938 131.101562 67.042969 131.003906 66.660156 131.003906 L 65.613281 131.003906 Z M 65.613281 134.203125 L 65.613281 137.070312 L 64.171875 137.070312 L 64.171875 129.894531 L 66.660156 129.894531 C 67.476562 129.894531 68.117188 130.082031 68.578125 130.453125 C 69.039062 130.828125 69.269531 131.347656 69.269531 132.015625 C 69.269531 132.382812 69.171875 132.699219 68.976562 132.96875 C 68.78125 133.234375 68.496094 133.453125 68.121094 133.617188 C 68.546875 133.742188 68.851562 133.949219 69.035156 134.242188 C 69.222656 134.535156 69.316406 134.894531 69.316406 135.328125 L 69.316406 135.855469 C 69.316406 136.054688 69.34375 136.265625 69.398438 136.484375 C 69.449219 136.703125 69.542969 136.863281 69.675781 136.96875 L 69.675781 137.070312 L 68.191406 137.070312 C 68.058594 136.96875 67.976562 136.792969 67.9375 136.550781 C 67.898438 136.304688 67.882812 136.070312 67.882812 135.84375 L 67.882812 135.335938 C 67.882812 134.980469 67.78125 134.699219 67.585938 134.5 C 67.390625 134.300781 67.113281 134.203125 66.757812 134.203125 Z M 65.613281 134.203125 "/>
<path style=" stroke:none;fill-rule:nonzero;fill:rgb(19.215686%,20%,20.784314%);fill-opacity:1;" d="M 75.40625 134.394531 L 77.027344 134.394531 L 76.234375 131.867188 L 76.203125 131.867188 Z M 77.378906 135.523438 L 75.050781 135.523438 L 74.566406 137.070312 L 73.0625 137.070312 L 75.484375 129.894531 L 76.957031 129.894531 L 79.371094 137.070312 L 77.867188 137.070312 Z M 77.378906 135.523438 "/>
<path style=" stroke:none;fill-rule:nonzero;fill:rgb(19.215686%,20%,20.784314%);fill-opacity:1;" d="M 84.527344 133.898438 L 84.527344 135.96875 L 85.863281 135.96875 C 86.246094 135.96875 86.535156 135.886719 86.738281 135.71875 C 86.9375 135.554688 87.039062 135.308594 87.039062 134.980469 C 87.039062 134.632812 86.9375 134.367188 86.742188 134.179688 C 86.542969 133.992188 86.246094 133.898438 85.847656 133.898438 Z M 84.527344 132.902344 L 85.488281 132.902344 C 85.875 132.902344 86.167969 132.824219 86.375 132.664062 C 86.582031 132.507812 86.6875 132.277344 86.6875 131.976562 C 86.6875 131.644531 86.582031 131.398438 86.375 131.238281 C 86.164062 131.082031 85.855469 131.003906 85.441406 131.003906 L 84.527344 131.003906 Z M 83.089844 137.070312 L 83.089844 129.894531 L 85.441406 129.894531 C 86.285156 129.894531 86.945312 130.058594 87.417969 130.390625 C 87.890625 130.71875 88.125 131.210938 88.125 131.859375 C 88.125 132.191406 88.039062 132.484375 87.871094 132.742188 C 87.699219 133.003906 87.449219 133.199219 87.121094 133.332031 C 87.566406 133.414062 87.90625 133.605469 88.132812 133.914062 C 88.359375 134.21875 88.472656 134.574219 88.472656 134.980469 C 88.472656 135.667969 88.246094 136.1875 87.792969 136.542969 C 87.335938 136.894531 86.695312 137.070312 85.863281 137.070312 Z M 83.089844 137.070312 "/>
<path style=" stroke:none;fill-rule:nonzero;fill:rgb(19.215686%,20%,20.784314%);fill-opacity:1;" d="M 94.320312 134.394531 L 95.941406 134.394531 L 95.148438 131.867188 L 95.117188 131.867188 Z M 96.292969 135.523438 L 93.964844 135.523438 L 93.480469 137.070312 L 91.980469 137.070312 L 94.398438 129.894531 L 95.875 129.894531 L 98.285156 137.070312 L 96.78125 137.070312 Z M 96.292969 135.523438 "/>
<path style=" stroke:none;fill-rule:nonzero;fill:rgb(19.215686%,20%,20.784314%);fill-opacity:1;" d="M 103.441406 135.96875 L 106.65625 135.96875 L 106.65625 137.070312 L 102.003906 137.070312 L 102.003906 129.894531 L 103.441406 129.894531 Z M 103.441406 135.96875 "/>
<path style=" stroke:none;fill-rule:nonzero;fill:rgb(19.215686%,20%,20.784314%);fill-opacity:1;" d="M 112.082031 135.96875 L 115.296875 135.96875 L 115.296875 137.070312 L 110.640625 137.070312 L 110.640625 129.894531 L 112.082031 129.894531 Z M 112.082031 135.96875 "/>
<path style=" stroke:none;fill-rule:nonzero;fill:rgb(19.215686%,20%,20.784314%);fill-opacity:1;" d="M 123.53125 132.828125 C 123.53125 132.269531 123.390625 131.808594 123.109375 131.453125 C 122.832031 131.09375 122.445312 130.914062 121.953125 130.914062 C 121.464844 130.914062 121.085938 131.09375 120.816406 131.453125 C 120.546875 131.808594 120.410156 132.269531 120.410156 132.828125 L 120.410156 134.128906 C 120.410156 134.699219 120.546875 135.160156 120.820312 135.519531 C 121.089844 135.878906 121.472656 136.058594 121.960938 136.058594 C 122.457031 136.058594 122.839844 135.878906 123.117188 135.519531 C 123.390625 135.160156 123.53125 134.699219 123.53125 134.128906 Z M 124.964844 134.128906 C 124.964844 135.011719 124.6875 135.742188 124.132812 136.316406 C 123.574219 136.890625 122.851562 137.175781 121.960938 137.175781 C 121.074219 137.175781 120.355469 136.886719 119.804688 136.3125 C 119.25 135.738281 118.976562 135.011719 118.976562 134.128906 L 118.976562 132.835938 C 118.976562 131.960938 119.25 131.234375 119.800781 130.65625 C 120.351562 130.078125 121.070312 129.789062 121.953125 129.789062 C 122.84375 129.789062 123.566406 130.078125 124.125 130.65625 C 124.683594 131.234375 124.964844 131.960938 124.964844 132.835938 Z M 124.964844 134.128906 "/>
</g>
</svg>
